PathFileType	4	(X/Y/Z)	./resultDataOpenSim/trcMotMarkerGrf/sub09/qtm-15-06.trc
DataRate	CameraRate	NumFrames	NumMarkers	Units	OrigDataRate	OrigDataStartFrame	OrigNumFrames
250.000000	250.000000	12	24	m	250.000000	440	502
Frame#	Time	L.Toe.Tip			R.Toe.Tip			L.Ankle.Lat			R.Ankle.Lat			L.Ankle.Med			R.Ankle.Med			L.Heel			R.Heel			L.Knee.Lat			R.Knee.Lat			L.Knee.Med			R.Knee.Med			L.Thigh.Upper			R.Thigh.Upper			L.ASIS			R.ASIS			V.Sacral			L.Acromium			R.Acromium			C7			L.Elbow			R.Elbow			L.Wrist.Lat			R.Wrist.Lat
		X1	Y1	Z1	X2	Y2	Z2	X3	Y3	Z3	X4	Y4	Z4	X5	Y5	Z5	X6	Y6	Z6	X7	Y7	Z7	X8	Y8	Z8	X9	Y9	Z9	X10	Y10	Z10	X11	Y11	Z11	X12	Y12	Z12	X13	Y13	Z13	X14	Y14	Z14	X15	Y15	Z15	X16	Y16	Z16	X17	Y17	Z17	X18	Y18	Z18	X19	Y19	Z19	X20	Y20	Z20	X21	Y21	Z21	X22	Y22	Z22	X23	Y23	Z23	X24	Y24	Z24

440	1.756	1.7592155	0.051433289	-0.092558518	1.0096926	0.041945542	0.052675251	1.6071204	0.073912143	-0.13168103	0.90386449	0.13578721	0.093566691	1.6284004	0.095471286	-0.037194587	0.93755488	0.16140555	0.0038376525	1.5407943	0.033220919	-0.087591728	0.83753192	0.15931568	0.039687324	1.5245448	0.4846724	-0.16599096	1.2303204	0.46672279	0.14930785	1.5347433	0.4783499	-0.038994897	1.2214746	0.45114609	0.023560388	1.3351779	0.85451391	-0.20114544	1.2563971	0.86716961	0.17801492	1.400097	0.94883857	-0.13353132	1.3894081	0.9479907	0.10835094	1.2239804	0.99109641	-0.028491496	1.3454845	1.3938716	-0.20061559	1.3350188	1.414596	0.13300971	1.2701137	1.4509927	-0.035219024	1.2121546	1.0508202	-0.24155213	1.2101494	1.0615538	0.2291636	1.3074268	0.8175066	-0.3106759	1.4468217	0.91426638	0.20488386
441	1.76	1.7608601	0.0473222	-0.09143559	1.0101513	0.042430524	0.052495261	1.6093303	0.073230945	-0.13194849	0.90686495	0.13957858	0.094253521	1.62994	0.094460171	-0.037182097	0.94165049	0.16412744	0.0045626994	1.5415588	0.034261549	-0.088751652	0.84191019	0.16460336	0.039932996	1.5323928	0.48548081	-0.16641447	1.23831	0.46553208	0.1497062	1.5454678	0.48035443	-0.038088506	1.230084	0.44918294	0.024006277	1.3416688	0.85541788	-0.20223489	1.2636382	0.86537443	0.17682235	1.4059558	0.94929636	-0.13439266	1.3953015	0.94690074	0.10725131	1.2297722	0.99052466	-0.028897672	1.3510287	1.3933036	-0.20130661	1.3401487	1.4140738	0.13232261	1.2754556	1.4503467	-0.036042748	1.2179905	1.0501699	-0.24242617	1.2160617	1.0608059	0.22724078	1.3134104	0.81683899	-0.31122619	1.4508043	0.9115678	0.2048682
442	1.764	1.7625903	0.044354514	-0.090661839	1.0107373	0.043019996	0.052399988	1.61141	0.072515458	-0.13194578	0.90985491	0.14361109	0.094987719	1.6312874	0.093494396	-0.036825548	0.9460658	0.16701698	0.0053193034	1.542422	0.035070516	-0.089464188	0.84662346	0.17001422	0.040114617	1.5403811	0.48602814	-0.16689727	1.2466113	0.46439265	0.15015804	1.5565443	0.48245993	-0.03702613	1.2388825	0.44720877	0.024520038	1.3481501	0.85646791	-0.2033742	1.2736194	0.86320403	0.17478486	1.4117964	0.94987133	-0.13527404	1.4011598	0.94587464	0.10610543	1.2355247	0.9899332	-0.029332764	1.3565941	1.3927805	-0.20194725	1.3453321	1.4136237	0.13161248	1.2807297	1.4496772	-0.036864774	1.2237305	1.0495534	-0.24345372	1.2216806	1.0601139	0.22538781	1.3194639	0.81624457	-0.3117486	1.4546968	0.90885668	0.20487666
443	1.768	1.7642638	0.042532241	-0.090295757	1.0115336	0.043720252	0.052464865	1.6133353	0.071875325	-0.13162286	0.91302126	0.1477695	0.095691302	1.6324496	0.092650531	-0.036169796	0.95086731	0.16999382	0.0060824921	1.5433156	0.035649409	-0.089739092	0.85164404	0.17544709	0.040199383	1.5482569	0.48632213	-0.16743448	1.2552578	0.46332882	0.15068593	1.5661644	0.48395699	-0.036289019	1.2478957	0.44520889	0.025090027	1.3545959	0.85758632	-0.20456277	1.28414	0.86097313	0.1725206	1.4175831	0.95051986	-0.13617302	1.4070008	0.94490463	0.10493114	1.2412303	0.98933557	-0.029804441	1.3621771	1.392302	-0.20253969	1.3505585	1.4132172	0.13090839	1.2859466	1.4490079	-0.037640151	1.2293695	1.0489351	-0.24464277	1.2268739	1.0594564	0.22352288	1.3255939	0.81571805	-0.31224654	1.4585192	0.90614618	0.20490386
444	1.772	1.7656185	0.041515619	-0.090151321	1.0125921	0.044542201	0.052689531	1.6149166	0.071420246	-0.13108409	0.91657947	0.15196155	0.096273281	1.6333519	0.091971706	-0.035404419	0.95607078	0.1729801	0.0068098343	1.5441039	0.035999654	-0.089641248	0.85694964	0.18084873	0.040163093	1.555757	0.48642586	-0.16800181	1.2641128	0.46233201	0.15129589	1.5738205	0.48462929	-0.036050074	1.2571379	0.44317249	0.025687766	1.3609798	0.85867067	-0.20579717	1.2933612	0.85896048	0.17056429	1.4232739	0.95121207	-0.13708539	1.412833	0.9439863	0.10374777	1.2468596	0.98874818	-0.030338613	1.3677779	1.3918759	-0.20309192	1.3558066	1.4128456	0.13023116	1.2911119	1.4483796	-0.038341667	1.2349805	1.0483248	-0.24586372	1.2316845	1.0588538	0.22160668	1.3318066	0.81525668	-0.31272313	1.4622851	0.90345394	0.20494958
445	1.776	1.7665137	0.040926849	-0.089935149	1.0139276	0.045500936	0.053026524	1.6159283	0.071180952	-0.13056661	0.92056835	0.15620972	0.096710431	1.6339103	0.091453423	-0.034746242	0.96164476	0.1759326	0.0074676865	1.5446821	0.036104138	-0.089398697	0.86255112	0.18621286	0.040008718	1.5627856	0.48644602	-0.16858023	1.273003	0.46135791	0.15193892	1.5803584	0.48476192	-0.036136993	1.2666112	0.44109767	0.026272918	1.3672603	0.85961623	-0.20706964	1.3008124	0.857244	0.16906523	1.4288325	0.95192509	-0.13802073	1.418638	0.94312139	0.10256591	1.2523882	0.98819254	-0.030947665	1.3733907	1.3915119	-0.20361607	1.361061	1.4125167	0.12958724	1.2962311	1.4478256	-0.038971066	1.2406641	1.0477689	-0.24694439	1.2364455	1.0583628	0.21970389	1.3381043	0.81485496	-0.31317918	1.4659862	0.90079452	0.20501679
446	1.78	1.7670044	0.040532147	-0.089554909	1.0155254	0.046601438	0.053405163	1.6163186	0.071089385	-0.13027559	0.92494121	0.16057439	0.097032866	1.6341909	0.091071196	-0.034319853	0.96753374	0.17885088	0.0080453784	1.545039	0.035990898	-0.089287443	0.86847495	0.19156487	0.039777636	1.5693541	0.48647164	-0.16916723	1.2818329	0.46034375	0.15254265	1.5867919	0.48474596	-0.036327873	1.2763104	0.4389973	0.026798426	1.3733779	0.86034952	-0.20836258	1.307273	0.85572857	0.16781151	1.4342464	0.95263842	-0.1389997	1.4243706	0.9423129	0.10138789	1.2577996	0.98768966	-0.031635257	1.3789985	1.3912142	-0.20412562	1.3663101	1.4122434	0.12898168	1.301318	1.4473619	-0.039551901	1.2464617	1.0472974	-0.24783189	1.2415423	1.0580217	0.2179037	1.3444824	0.81450752	-0.31361285	1.4696067	0.89817364	0.20510889
447	1.784	1.7672447	0.04023258	-0.089148092	1.0173732	0.047840447	0.053744492	1.6162966	0.071045096	-0.13024855	0.92977254	0.16502447	0.09727407	1.6343816	0.09080192	-0.03412539	0.97368809	0.18175988	0.0085499449	1.5452397	0.035784853	-0.08940548	0.87473301	0.19694487	0.039533355	1.5754755	0.48652298	-0.16977601	1.2906061	0.45923594	0.15305266	1.5933864	0.48481644	-0.036598441	1.2862243	0.43690179	0.027228764	1.3792772	0.86084749	-0.20965512	1.31418	0.85425634	0.16640828	1.4395366	0.95333864	-0.14002899	1.4299868	0.94156306	0.10021449	1.2630854	0.98725115	-0.032407947	1.3845805	1.3909837	-0.2046303	1.3715363	1.4120395	0.12842453	1.3063951	1.4470078	-0.040119567	1.2523407	1.0468975	-0.24860959	1.2470425	1.0578071	0.21621114	1.350932	0.81421497	-0.31402066	1.473138	0.89559258	0.20522901
448	1.788	1.7673828	0.039988322	-0.088868822	1.0194689	0.049216184	0.053994766	1.6161974	0.070989233	-0.1303746	0.93518574	0.16947828	0.097471981	1.6345777	0.090619484	-0.034087372	0.98008226	0.18468265	0.0089919477	1.5453589	0.035650017	-0.089647179	0.88132555	0.20238147	0.039324406	1.5811879	0.48656892	-0.17041855	1.2993944	0.458035	0.15344109	1.5993171	0.48499024	-0.037232783	1.2963357	0.43485518	0.027553838	1.384941	0.86113499	-0.21093637	1.3231084	0.85268239	0.16442949	1.444746	0.95401752	-0.14108885	1.4354625	0.94087865	0.099051205	1.2682634	0.98688404	-0.033237315	1.390122	1.3908241	-0.20513212	1.3767128	1.4119203	0.12791971	1.3114827	1.4467899	-0.040702115	1.2582465	1.0465393	-0.24938174	1.2527177	1.0576614	0.21455873	1.3574457	0.81397995	-0.31439845	1.4765784	0.89305434	0.20538086
449	1.792	1.7675078	0.039774864	-0.088762889	1.0217989	0.050720039	0.054174042	1.6162419	0.070916079	-0.13051779	0.94113612	0.17393355	0.097665697	1.6347382	0.090501618	-0.034126355	0.9867175	0.18762449	0.0093801078	1.5454409	0.035663272	-0.089873294	0.88825675	0.20787181	0.039164063	1.5866006	0.48657483	-0.17108336	1.308266	0.45682756	0.15371447	1.6028289	0.48510551	-0.038776753	1.306618	0.43290671	0.027781773	1.3904026	0.86127107	-0.2122022	1.3344925	0.85098607	0.16176422	1.4499159	0.95466235	-0.14215116	1.4407844	0.94027449	0.097909722	1.2733676	0.98659859	-0.034064974	1.395617	1.3907399	-0.20562517	1.3818169	1.4118946	0.12745594	1.316588	1.4467195	-0.041301391	1.2641529	1.0462178	-0.25017652	1.2583355	1.0575479	0.21289999	1.3640213	0.81380195	-0.31474229	1.4799279	0.89056166	0.20556584
450	1.796	1.767639	0.03957715	-0.088777597	1.02433	0.052321051	0.054351422	1.616419	0.0708476	-0.13061632	0.94740891	0.17847198	0.097860537	1.6348203	0.090444479	-0.03419731	0.99361495	0.19057029	0.009726919	1.5455019	0.035764295	-0.090034166	0.89552827	0.21337893	0.039043077	1.5918772	0.48652912	-0.17173452	1.3172454	0.45574007	0.15390688	1.6027975	0.48500506	-0.041533008	1.3170247	0.43110664	0.027925971	1.3957276	0.86133438	-0.21344118	1.3463739	0.8493334	0.15895959	1.4550667	0.95525912	-0.14319456	1.44595	0.93977425	0.096805161	1.2784197	0.98640408	-0.034858131	1.4010672	1.3907299	-0.20610155	1.3868497	1.4119511	0.12701611	1.3217017	1.4467804	-0.041899212	1.2700685	1.0459523	-0.25095889	1.2638202	1.0574643	0.21124847	1.3706583	0.81368128	-0.31504902	1.4831913	0.88811504	0.20577765
451	1.8	1.7677577	0.039393099	-0.088823498	1.0270272	0.053966027	0.054599932	1.6165882	0.070810066	-0.13068053	0.95375554	0.18318372	0.098024641	1.6348685	0.090456793	-0.034286867	1.0007954	0.19348549	0.010054397	1.5455451	0.035841784	-0.090152004	0.90312352	0.21883512	0.038948944	1.5970741	0.48645085	-0.1723505	1.3263312	0.45485614	0.15405347	1.6009064	0.48478331	-0.044867623	1.3274876	0.42950541	0.027999116	1.4009861	0.86140959	-0.21463251	1.355865	0.84792248	0.1568185	1.4601956	0.95580645	-0.1441977	1.4509749	0.93940536	0.095754621	1.2834253	0.98630569	-0.035610319	1.4064768	1.3907869	-0.206553	1.3918388	1.4120634	0.12659274	1.3268036	1.4469466	-0.042476511	1.2760005	1.0457455	-0.25170938	1.2692139	1.057426	0.20964469	1.377356	0.8136255	-0.31531793	1.4863811	0.88571752	0.20600569
